HIERARCHY
ROOT joint_Root
{
	OFFSET 0.0 0.0 0.0
	CHANNELS 6 Xposition Yposition Zposition Zrotation Xrotation Yrotation 
	JOINT Hips
	{
		OFFSET 4.5925 91.4895 -427.239
		CHANNELS 6 Xposition Yposition Zposition Zrotation Xrotation Yrotation 
		JOINT Spine
		{
			OFFSET 15.7357 0.0 0.0
			CHANNELS 6 Xposition Yposition Zposition Zrotation Xrotation Yrotation 
			JOINT Chest
			{
				OFFSET 8.98455 -0.406207 0.0
				CHANNELS 6 Xposition Yposition Zposition Zrotation Xrotation Yrotation 
				JOINT Neck
				{
					OFFSET 16.3773 0.0 0.0
					CHANNELS 6 Xposition Yposition Zposition Zrotation Xrotation Yrotation 
					JOINT Head
					{
						OFFSET 6.45672 0.0 0.0
						CHANNELS 6 Xposition Yposition Zposition Zrotation Xrotation Yrotation 
						End Site
						{
							OFFSET 0.0 0.0 0.0
						}
					}
				}
				JOINT Shoulder_L
				{
					OFFSET 12.9942 -0.242716 4.98039
					CHANNELS 6 Xposition Yposition Zposition Zrotation Xrotation Yrotation 
					JOINT UpperArm_L
					{
						OFFSET 5.34809 0.0 0.0
						CHANNELS 6 Xposition Yposition Zposition Zrotation Xrotation Yrotation 
						JOINT LowerArm_L
						{
							OFFSET 24.3286 1.87007e-05 0.0
							CHANNELS 6 Xposition Yposition Zposition Zrotation Xrotation Yrotation 
							JOINT Hand_L
							{
								OFFSET 22.2916 0.0 0.0
								CHANNELS 6 Xposition Yposition Zposition Zrotation Xrotation Yrotation 
								End Site
								{
									OFFSET 0.0 0.0 0.0
								}
							}
						}
					}
				}
				JOINT Shoulder_R
				{
					OFFSET 12.9945 -0.242716 -4.98039
					CHANNELS 6 Xposition Yposition Zposition Zrotation Xrotation Yrotation 
					JOINT UpperArm_R
					{
						OFFSET -5.34813 0.0 0.0
						CHANNELS 6 Xposition Yposition Zposition Zrotation Xrotation Yrotation 
						JOINT LowerArm_R
						{
							OFFSET -24.3289 0.000322201 0.0
							CHANNELS 6 Xposition Yposition Zposition Zrotation Xrotation Yrotation 
							JOINT Hand_R
							{
								OFFSET -22.2915 -0.000108084 0.0
								CHANNELS 6 Xposition Yposition Zposition Zrotation Xrotation Yrotation 
								End Site
								{
									OFFSET 0.0 0.0 0.0
								}
							}
						}
					}
				}
			}
		}
		JOINT UpperLeg_L
		{
			OFFSET -2.19248 -6.46944 0.0
			CHANNELS 6 Xposition Yposition Zposition Zrotation Xrotation Yrotation 
			JOINT LowerLeg_L
			{
				OFFSET 39.0811 0.0 -1.23785e-05
				CHANNELS 6 Xposition Yposition Zposition Zrotation Xrotation Yrotation 
				JOINT Foot_L
				{
					OFFSET 40.9854 0.0 -1.26872e-05
					CHANNELS 6 Xposition Yposition Zposition Zrotation Xrotation Yrotation 
					JOINT Toes_L
					{
						OFFSET 11.7543 0.0 0.0
						CHANNELS 6 Xposition Yposition Zposition Zrotation Xrotation Yrotation 
						End Site
						{
							OFFSET 0.0 0.0 0.0
						}
					}
				}
			}
		}
		JOINT UpperLeg_R
		{
			OFFSET -2.19251 6.46944 0.0
			CHANNELS 6 Xposition Yposition Zposition Zrotation Xrotation Yrotation 
			JOINT LowerLeg_R
			{
				OFFSET -39.0811 -0.00228153 -0.0401928
				CHANNELS 6 Xposition Yposition Zposition Zrotation Xrotation Yrotation 
				JOINT Foot_R
				{
					OFFSET -40.9854 0.0 0.0
					CHANNELS 6 Xposition Yposition Zposition Zrotation Xrotation Yrotation 
					JOINT Toes_R
					{
						OFFSET -11.7543 0.0 0.0
						CHANNELS 6 Xposition Yposition Zposition Zrotation Xrotation Yrotation 
						End Site
						{
							OFFSET 0.0 0.0 0.0
						}
					}
				}
			}
		}
	}
}
MOTION
Frames:	9
Frame Time:	0.0333333
0.000000 0.000000 0.000000 0.000000 0.000000 -0.000000 -0.471451 90.086900 -5.186580 89.218100 -2.092390 12.192900 15.735700 0.000005 -0.000001 88.796100 78.790300 -89.249400 8.984550 -0.406207 -0.000000 14.647000 -0.492284 -0.843971 16.377300 -0.000001 -0.000001 8.326700 -2.651260 2.036720 6.456720 -0.000001 -0.000000 -10.689000 -1.511760 0.960538 12.994200 -0.242716 4.980390 -89.929700 -0.294549 -76.568800 5.348090 -0.000007 -0.000001 -80.850600 -17.819900 -68.314900 24.328600 0.000019 0.000005 34.083900 -6.198510 -99.066400 22.291600 -0.000001 0.000005 37.830700 4.927910 8.816020 12.994500 -0.242716 -4.980390 89.631700 3.000400 -82.999200 -5.348130 -0.000001 -0.000004 -72.376600 -18.787400 -66.064600 -24.328900 0.000322 -0.000009 22.622900 -4.676090 -101.069000 -22.291500 -0.000108 -0.000004 40.238600 5.285300 0.480182 -2.192480 -6.469440 -0.000000 -174.797000 -11.432900 -4.417360 39.081100 -0.000007 -0.000012 -0.211702 0.292348 35.910400 40.985400 -0.000006 -0.000013 1.079140 5.854760 -69.240000 11.754300 -0.000000 0.000003 -0.000080 -0.000853 -16.610400 -2.192510 6.469440 -0.000001 175.255000 18.965600 177.371000 -39.081100 -0.002282 -0.040193 -0.157828 0.229180 35.108200 -40.985400 0.000008 0.000006 5.070570 12.729600 -70.439300 -11.754300 -0.000006 -0.000006 -0.002664 -0.036743 -18.067300
0.000000 0.000000 0.000000 0.000000 0.000000 -0.000000 -0.440559 90.086600 -5.228220 89.233100 -2.052840 12.242500 15.735700 0.000005 -0.000001 88.785000 78.778200 -89.239000 8.984550 -0.406207 -0.000000 14.671100 -0.497205 -0.844533 16.377300 -0.000001 -0.000001 8.338320 -2.663710 2.078070 6.456720 -0.000001 -0.000000 -10.668200 -1.494270 0.867422 12.994200 -0.242716 4.980390 -89.911400 -0.374936 -76.698400 5.348090 -0.000007 -0.000001 -78.804500 -16.139900 -68.483100 24.328600 0.000019 0.000005 35.004400 -6.383250 -99.020600 22.291600 -0.000001 0.000005 36.805000 4.936410 8.643180 12.994500 -0.242716 -4.980390 89.640100 2.935170 -83.007000 -5.348130 -0.000001 -0.000004 -69.657200 -17.688500 -66.394700 -24.328900 0.000322 -0.000009 22.813500 -4.756190 -101.151000 -22.291500 -0.000108 -0.000004 39.850900 5.295530 0.197127 -2.192480 -6.469440 -0.000000 -174.825000 -11.451300 -4.399580 39.081100 -0.000007 -0.000012 -0.211386 0.291909 35.910600 40.985400 -0.000006 -0.000013 1.117090 5.892850 -69.214500 11.754300 -0.000000 0.000003 -0.000082 -0.000871 -16.611100 -2.192510 6.469440 -0.000001 175.201000 18.999300 177.393000 -39.081100 -0.002282 -0.040193 -0.159082 0.230846 35.121900 -40.985400 0.000008 0.000006 5.063510 12.742400 -70.417200 -11.754300 -0.000006 -0.000006 -0.002898 -0.039442 -18.177100
0.000000 0.000000 0.000000 0.000000 0.000000 -0.000000 -0.412928 90.092500 -5.276610 89.247200 -2.048430 12.226600 15.735700 0.000005 -0.000001 88.728200 78.789700 -89.190000 8.984550 -0.406207 -0.000000 14.647600 -0.519062 -0.857474 16.377300 -0.000001 -0.000001 8.295210 -2.678090 2.091360 6.456720 -0.000001 -0.000000 -10.655300 -1.506760 0.937402 12.994200 -0.242716 4.980390 -89.885300 -0.482639 -76.628800 5.348090 -0.000007 -0.000001 -76.202500 -14.039200 -68.699000 24.328600 0.000019 0.000005 35.648600 -6.424960 -98.868000 22.291600 -0.000001 0.000005 36.625400 4.933270 8.707350 12.994500 -0.242716 -4.980390 89.646600 2.882570 -83.006900 -5.348130 -0.000001 -0.000004 -66.623600 -16.416200 -66.800300 -24.328900 0.000322 -0.000009 22.969900 -4.864260 -101.313000 -22.291500 -0.000108 -0.000004 39.594500 5.300240 0.065332 -2.192480 -6.469440 -0.000000 -174.867000 -11.483800 -4.440690 39.081100 -0.000007 -0.000012 -0.209793 0.289972 35.885900 40.985400 -0.000006 -0.000013 1.147420 5.906740 -69.169900 11.754300 -0.000000 0.000003 -0.000076 -0.000810 -16.608800 -2.192510 6.469440 -0.000001 175.175000 19.013300 177.345000 -39.081100 -0.002282 -0.040193 -0.160628 0.233155 35.109000 -40.985400 0.000008 0.000006 5.041580 12.760800 -70.367900 -11.754300 -0.000006 -0.000006 -0.002772 -0.037993 -18.118200
0.000000 0.000000 0.000000 0.000000 0.000000 -0.000000 -0.386367 90.095000 -5.317830 89.243100 -2.049330 12.251700 15.735700 0.000005 -0.000001 88.668400 78.792500 -89.130200 8.984550 -0.406207 -0.000000 14.641200 -0.541986 -0.854448 16.377300 -0.000001 -0.000001 8.274770 -2.688870 2.120810 6.456720 -0.000001 -0.000000 -10.591900 -1.547340 0.991727 12.994200 -0.242716 4.980390 -89.865400 -0.568122 -76.667100 5.348090 -0.000007 -0.000001 -73.161500 -12.014800 -68.988100 24.328600 0.000019 0.000005 35.848000 -6.414520 -98.790100 22.291600 -0.000001 0.000005 36.001300 4.950500 8.354130 12.994500 -0.242716 -4.980390 89.658100 2.806950 -83.053000 -5.348130 -0.000001 -0.000004 -63.328800 -15.107700 -67.233600 -24.328900 0.000322 -0.000009 23.120700 -4.969160 -101.468000 -22.291500 -0.000108 -0.000004 39.388200 5.306470 -0.110020 -2.192480 -6.469440 -0.000000 -174.876000 -11.480500 -4.444730 39.081100 -0.000007 -0.000012 -0.211965 0.293016 35.882000 40.985400 -0.000006 -0.000013 1.163130 5.905380 -69.140000 11.754300 -0.000000 0.000003 -0.000090 -0.000943 -16.613800 -2.192510 6.469440 -0.000001 175.165000 19.021600 177.342000 -39.081100 -0.002282 -0.040193 -0.159331 0.231383 35.100600 -40.985400 0.000008 0.000006 5.024400 12.764300 -70.325700 -11.754300 -0.000006 -0.000006 -0.002864 -0.039051 -18.161200
0.000000 0.000000 0.000000 0.000000 0.000000 -0.000000 -0.362015 90.095000 -5.355800 89.234700 -2.100150 12.300600 15.735700 0.000005 -0.000001 88.725500 78.762200 -89.177200 8.984550 -0.406207 -0.000000 14.702600 -0.520847 -0.836598 16.377300 -0.000001 -0.000001 8.180470 -2.756710 2.173700 6.456720 -0.000001 -0.000000 -10.617600 -1.580160 0.967916 12.994200 -0.242716 4.980390 -89.852800 -0.623999 -76.727100 5.348090 -0.000007 -0.000001 -69.938900 -10.114700 -69.510000 24.328600 0.000019 0.000005 37.155900 -6.618700 -98.648100 22.291600 -0.000001 0.000005 34.737800 4.961790 8.121300 12.994500 -0.242716 -4.980390 89.660200 2.756490 -82.969300 -5.348130 -0.000001 -0.000004 -59.908800 -13.773900 -67.915200 -24.328900 0.000322 -0.000009 23.424100 -5.086540 -101.566000 -22.291500 -0.000108 -0.000004 38.880400 5.313470 -0.309082 -2.192480 -6.469440 -0.000000 -174.880000 -11.517700 -4.425530 39.081100 -0.000007 -0.000012 -0.207189 0.286303 35.892600 40.985400 -0.000006 -0.000013 1.183190 5.883740 -69.121200 11.754300 -0.000000 0.000003 -0.000077 -0.000824 -16.609300 -2.192510 6.469440 -0.000001 175.149000 19.010900 177.362000 -39.081100 -0.002282 -0.040193 -0.160106 0.232510 35.097700 -40.985400 0.000008 0.000006 5.007280 12.819300 -70.287700 -11.754300 -0.000006 -0.000006 -0.002866 -0.039080 -18.162400
0.000000 0.000000 0.000000 0.000000 0.000000 -0.000000 -0.344284 90.086500 -5.400290 89.215100 -2.177870 12.323500 15.735700 0.000005 -0.000001 88.717700 78.747500 -89.165200 8.984550 -0.406207 -0.000000 14.731900 -0.524363 -0.827676 16.377300 -0.000001 -0.000001 8.111560 -2.785710 2.183650 6.456720 -0.000001 -0.000000 -10.636400 -1.597190 1.001600 12.994200 -0.242716 4.980390 -89.824200 -0.741091 -76.655100 5.348090 -0.000007 -0.000001 -66.261200 -8.166540 -70.117800 24.328600 0.000019 0.000005 38.163700 -6.739820 -98.493500 22.291600 -0.000001 0.000005 34.272800 4.971050 7.928920 12.994500 -0.242716 -4.980390 89.672900 2.653110 -82.968200 -5.348130 -0.000001 -0.000004 -56.431100 -12.519500 -68.557200 -24.328900 0.000322 -0.000009 23.643800 -5.217850 -101.735000 -22.291500 -0.000108 -0.000004 38.532800 5.321640 -0.543459 -2.192480 -6.469440 -0.000000 -174.850000 -11.572400 -4.446720 39.081100 -0.000007 -0.000012 -0.209623 0.289106 35.945200 40.985400 -0.000006 -0.000013 1.189840 5.873360 -69.124600 11.754300 -0.000000 0.000003 -0.000076 -0.000811 -16.608900 -2.192510 6.469440 -0.000001 175.166000 18.958000 177.327000 -39.081100 -0.002282 -0.040193 -0.162555 0.235822 35.117600 -40.985400 0.000008 0.000006 4.890890 12.858700 -70.224400 -11.754300 -0.000006 -0.000006 -0.002695 -0.037098 -18.081700
0.000000 0.000000 0.000000 0.000000 0.000000 -0.000000 -0.328422 90.085300 -5.439170 89.206900 -2.242210 12.377500 15.735700 0.000005 -0.000001 88.763200 78.711700 -89.207700 8.984550 -0.406207 -0.000000 14.803900 -0.508297 -0.823646 16.377300 -0.000001 -0.000001 8.056580 -2.827330 2.210790 6.456720 -0.000001 -0.000000 -10.640100 -1.636170 0.992664 12.994200 -0.242716 4.980390 -89.816900 -0.773643 -76.686800 5.348090 -0.000007 -0.000001 -62.312900 -6.481910 -70.893800 24.328600 0.000019 0.000005 38.510800 -6.851450 -98.526100 22.291600 -0.000001 0.000005 33.377900 5.003140 7.252260 12.994500 -0.242716 -4.980390 89.682700 2.579590 -82.986300 -5.348130 -0.000001 -0.000004 -52.975500 -11.489100 -69.204500 -24.328900 0.000322 -0.000009 23.934800 -5.386460 -101.942000 -22.291500 -0.000108 -0.000004 38.151200 5.326460 -0.682837 -2.192480 -6.469440 -0.000000 -174.842000 -11.580900 -4.418630 39.081100 -0.000007 -0.000012 -0.207865 0.286552 35.957500 40.985400 -0.000006 -0.000013 1.195120 5.852880 -69.109700 11.754300 -0.000000 0.000003 -0.000080 -0.000851 -16.610300 -2.192510 6.469440 -0.000001 175.174000 18.918500 177.333000 -39.081100 -0.002282 -0.040193 -0.157818 0.228869 35.143200 -40.985400 0.000008 0.000006 5.019870 12.859300 -70.236200 -11.754300 -0.000006 -0.000006 -0.002772 -0.037990 -18.118000
0.000000 0.000000 0.000000 0.000000 0.000000 -0.000000 -0.308131 90.080200 -5.473010 89.219700 -2.301740 12.442200 15.735700 0.000005 -0.000001 88.685500 78.667500 -89.134300 8.984550 -0.406207 -0.000000 14.891400 -0.541047 -0.827430 16.377300 -0.000001 -0.000001 7.997590 -2.870270 2.167910 6.456720 -0.000001 -0.000000 -10.626600 -1.580410 1.001140 12.994200 -0.242716 4.980390 -89.800500 -0.843977 -76.696400 5.348090 -0.000007 -0.000001 -58.517500 -5.108650 -71.681900 24.328600 0.000019 0.000005 39.964100 -7.337210 -98.664700 22.291600 -0.000001 0.000005 32.169600 5.024040 6.803310 12.994500 -0.242716 -4.980390 89.697700 2.464770 -83.004700 -5.348130 -0.000001 -0.000004 -49.676000 -10.521300 -69.860000 -24.328900 0.000322 -0.000009 24.316900 -5.609610 -102.206000 -22.291500 -0.000108 -0.000004 37.723800 5.333340 -0.883314 -2.192480 -6.469440 -0.000000 -174.858000 -11.598400 -4.374270 39.081100 -0.000007 -0.000012 -0.206964 0.285109 35.976700 40.985400 -0.000006 -0.000013 1.194420 5.787450 -69.106700 11.754300 -0.000000 0.000003 -0.000091 -0.000951 -16.614100 -2.192510 6.469440 -0.000001 175.123000 18.900900 177.364000 -39.081100 -0.002282 -0.040193 -0.164034 0.237574 35.157400 -40.985400 0.000008 0.000006 4.897180 12.926300 -70.182800 -11.754300 -0.000006 -0.000006 -0.002875 -0.039177 -18.166300
0.000000 0.000000 0.000000 0.000000 0.000000 -0.000000 -0.299226 90.078500 -5.510220 89.207200 -2.353570 12.468600 15.735700 0.000005 -0.000001 88.602100 78.638500 -89.049500 8.984550 -0.406207 -0.000000 14.948600 -0.575087 -0.820034 16.377300 -0.000001 -0.000001 7.973730 -2.875430 2.185600 6.456720 -0.000001 -0.000000 -10.626800 -1.552720 0.958660 12.994200 -0.242716 4.980390 -89.782500 -0.922655 -76.733000 5.348090 -0.000007 -0.000001 -54.934500 -3.993240 -72.442900 24.328600 0.000019 0.000005 41.638500 -7.954520 -98.847500 22.291600 -0.000001 0.000005 31.783100 5.030800 6.657130 12.994500 -0.242716 -4.980390 89.708600 2.378840 -83.014000 -5.348130 -0.000001 -0.000004 -46.565500 -9.730870 -70.449300 -24.328900 0.000322 -0.000009 24.440500 -5.801720 -102.540000 -22.291500 -0.000108 -0.000004 37.260000 5.338320 -1.030970 -2.192480 -6.469440 -0.000000 -174.836000 -11.669600 -4.377170 39.081100 -0.000007 -0.000012 -0.205715 0.283198 35.995000 40.985400 -0.000006 -0.000013 1.209570 5.798030 -69.091700 11.754300 -0.000000 0.000003 -0.000087 -0.000916 -16.612800 -2.192510 6.469440 -0.000001 175.148000 18.840800 177.349000 -39.081100 -0.002282 -0.040193 -0.163558 0.236818 35.166500 -40.985400 0.000008 0.000006 4.915150 12.938100 -70.160600 -11.754300 -0.000006 -0.000006 -0.002831 -0.038675 -18.145900
